<?xml version="1.0" encoding="UTF-8"?>
<svg width="135px" height="39px" viewBox="0 0 135 39" version="1.1" xmlns="http://www.w3.org/2000/svg" xmlns:xlink="http://www.w3.org/1999/xlink">
    <!-- Generator: Sketch 62 (91390) - https://sketch.com -->
    <title>logo</title>
    <desc>Created with Sketch.</desc>
    <g id="Symbols" stroke="none" stroke-width="1" fill="none" fill-rule="evenodd">
        <g id="Footer-Nav" transform="translate(-67.000000, -21.000000)" fill="#252F4A" fill-rule="nonzero">
            <g id="logo" transform="translate(67.000000, 21.386725)">
                <g id="Group" transform="translate(28.609982, 0.704607)">
                    <g id="Path">
                        <path d="M9.03908085,13.4077913 L1.79087624,13.4077913 L1.79087624,0.607429991 C1.69487353,0.287420958 1.61487127,0.207418699 1.31086269,0.255420054 L0.590842367,0.351422764 C0.190831075,0.415424571 0.190831075,0.543428184 0.190831075,0.895438121 L0.190831075,13.503794 C0.103224945,13.8657035 0.193424192,14.2476959 0.433664848,14.5321914 C0.673905504,14.816687 1.03539541,14.9695895 1.4068654,14.9438347 L8.86307588,14.9438347 C9.29508808,14.9438347 9.4870935,14.7358288 9.58309621,14.3198171 L9.67909892,13.9518067 C9.79110208,13.5357949 9.59909666,13.3917909 9.03908085,13.4077913 Z"></path>
                        <path d="M12.9911924,0.0314137308 L12.2391712,0.143416893 C11.9351626,0.143416893 11.8391599,0.319421861 11.8391599,0.671431798 L11.8391599,14.8638324 C11.8391599,15.1838415 11.9351626,15.2798442 12.2391712,15.2318428 L12.9911924,15.1198397 C13.295201,15.1198397 13.3752033,14.9598351 13.3752033,14.6078252 L13.3752033,0.399424119 C13.4232046,0.0794150858 13.3432023,-0.000587172538 12.9911924,0.0314137308 Z"></path>
                        <path d="M27.3915989,7.64762873 L23.3434846,7.64762873 C22.9594738,7.64762873 22.8154697,7.77563234 22.8154697,8.22364499 L22.8154697,8.43165086 C22.8154697,8.8476626 22.9594738,8.99166667 23.3434846,8.99166667 L26.543575,8.99166667 L26.543575,13.0877823 C25.6558177,13.2928285 24.7501643,13.4107242 23.8394986,13.4397922 C19.8713866,13.4397922 17.7913279,11.4717367 17.7913279,7.64762873 C17.7913279,3.82352078 19.8553862,1.85546522 23.7274955,1.85546522 C24.7321134,1.88053887 25.7305938,2.02011141 26.7035795,2.27147696 C27.2475949,2.41548103 27.4556007,2.36747967 27.5676039,1.99946929 L27.5676039,1.67946025 C27.679607,1.24744806 27.5676039,1.05544264 26.9435863,0.911438573 C25.7831891,0.609046572 24.5905239,0.447875599 23.391486,0.431425023 C18.8153568,0.431425023 16.2552846,3.03949864 16.2552846,7.64762873 C16.2552846,12.2557588 18.8313573,14.863877 23.391486,14.863877 C24.5120625,14.866629 25.6290861,14.7377416 26.7195799,14.4798216 C27.5996048,14.3038166 27.9196138,13.9518067 27.9196138,13.2797877 L27.9196138,8.3516486 C27.9996161,7.83963415 27.8236111,7.64762873 27.3915989,7.64762873 Z"></path>
                        <path d="M41.5519986,0.271420506 L40.8159779,0.367423216 C40.5439702,0.367423216 40.4479675,0.543428184 40.4479675,0.879437669 L40.4479675,6.51159666 L32.5917457,6.51159666 L32.5917457,0.623430443 C32.5917457,0.303421409 32.495743,0.223419151 32.1917344,0.271420506 L31.4557136,0.367423216 C31.1677055,0.367423216 31.0877033,0.543428184 31.0557023,0.879437669 L31.0557023,14.6558266 C31.0557023,14.9598351 31.1677055,15.0398374 31.4557136,15.0078365 L32.1917344,14.8958333 C32.495743,14.8958333 32.5757453,14.7358288 32.5917457,14.3998193 L32.5917457,7.99963866 L40.4479675,7.99963866 L40.4479675,14.6558266 C40.4479675,14.9598351 40.5439702,15.0398374 40.8479788,15.0078365 L41.5679991,14.8958333 C41.8400068,14.8958333 41.9360095,14.7358288 41.9840108,14.3998193 L41.9840108,0.623430443 C41.9360095,0.303421409 41.7920054,0.223419151 41.5519986,0.271420506 Z"></path>
                        <path d="M56.4164182,1.31144986 L56.4164182,0.959439928 C56.1924119,0.543428184 56.0324074,0.415424571 55.6003952,0.367423216 L45.2641034,0.367423216 C44.8160908,0.367423216 44.6240854,0.543428184 44.5280827,0.959439928 L44.4480804,1.31144986 C44.3360772,1.72746161 44.5280827,1.87146567 45.0880985,1.90346658 L49.6482272,1.90346658 L49.6482272,14.7038279 C49.6482272,15.0078365 49.7762308,15.0878388 50.0802394,15.0558379 L50.8002597,14.9438347 C51.0722674,14.9438347 51.1842706,14.7838302 51.1842706,14.4478207 L51.1842706,1.90346658 L55.7764002,1.90346658 C56.3524164,1.87146567 56.5284214,1.72746161 56.4164182,1.31144986 Z"></path>
                        <path d="M71.1208333,0.623430443 L71.1208333,14.7198284 C71.1208333,14.9758356 71.1208333,15.0718383 71.1208333,15.0718383 C71.1208333,15.0718383 70.9448284,15.1518406 70.7368225,14.9278342 L60.3845303,3.43950994 L60.3845303,14.3838189 C60.3845303,14.7358288 60.3845303,14.8638324 60.0005194,14.9118338 L59.2484982,15.0078365 C58.9444896,15.0078365 58.8484836,15.0078365 58.8484836,14.6558266 L58.8484836,0.799435411 C58.8474693,0.490337427 59.0844202,0.232479159 59.3925023,0.207418699 C59.5839681,0.17323242 59.7802339,0.232706911 59.9205172,0.367423216 C59.9205172,0.367423216 69.6647922,11.2797313 69.6647922,11.2797313 L69.6647922,0.895438121 C69.6647922,0.559428636 69.7607949,0.431425023 70.0648035,0.383423668 L70.7368225,0.255420054 C71.0408311,0.207418699 71.1208333,0.303421409 71.1208333,0.623430443 Z"></path>
                        <path d="M75.712963,0.0314137308 L74.9609417,0.143416893 C74.6569332,0.143416893 74.5769309,0.303421409 74.5769309,0.655431346 L74.5769309,14.8798329 C74.5769309,15.1998419 74.6569332,15.2798442 74.9609417,15.2478433 L75.712963,15.1358401 C76.0169715,15.1358401 76.1129743,14.9598351 76.1129743,14.6238257 L76.1129743,0.399424119 C76.1129743,0.0794150858 76.0169715,-0.0165876242 75.712963,0.0314137308 Z"></path>
                        <path d="M105.793812,7.64762873 L101.553692,7.64762873 C101.169682,7.64762873 101.025678,7.77563234 101.025678,8.22364499 L101.025678,8.43165086 C101.025678,8.8476626 101.169682,8.99166667 101.553692,8.99166667 L104.865786,8.99166667 L104.865786,13.0877823 C103.977833,13.2917379 103.072286,13.4096197 102.16171,13.4397922 C98.2896003,13.4397922 96.1935411,11.4717367 96.1935411,7.64762873 C96.1935411,3.82352078 98.2575994,1.85546522 102.129709,1.85546522 C103.129134,1.87964829 104.122417,2.01924481 105.089792,2.27147696 C105.649808,2.41548103 105.857814,2.36747967 105.969817,1.99946929 L105.969817,1.67946025 C106.08182,1.24744806 105.969817,1.05544264 105.329799,0.911438573 C104.174834,0.609092573 102.987468,0.447911696 101.793699,0.431425023 C97.21757,0.431425023 94.6734982,3.03949864 94.6734982,7.64762873 C94.6734982,12.2557588 97.2495709,14.8638535 101.793699,14.8638535 C102.914226,14.8657481 104.031147,14.7368725 105.121793,14.4798216 C105.985818,14.3038166 106.305827,13.9518067 106.305827,13.2797877 L106.305827,8.3516486 C106.385829,7.83963415 106.225824,7.64762873 105.793812,7.64762873 Z"></path>
                        <path d="M92.0174232,0.623430443 L92.0174232,14.7198284 C92.0174232,14.9758356 92.0174232,15.0718383 92.0174232,15.0718383 C92.0174232,15.0718383 91.8414182,15.1518406 91.6334124,14.9278342 L81.2811201,3.43950994 L81.2811201,14.3838189 C81.2811201,14.7358288 81.2011179,14.8638324 80.8971093,14.9118338 L80.1930894,15.0078365 C79.9050813,15.0078365 79.8090786,15.0078365 79.8090786,14.6558266 L79.8090786,0.799435411 C79.7926374,0.539035746 79.9486125,0.298574136 80.1930894,0.207418699 C80.3796964,0.173177811 80.5711976,0.233021909 80.7051039,0.367423216 L90.4653794,11.2797313 L90.4653794,0.895438121 C90.4653794,0.559428636 90.5613821,0.431425023 90.8493902,0.383423668 L91.6334124,0.255420054 C91.937421,0.207418699 92.0174232,0.303421409 92.0174232,0.623430443 Z"></path>
                    </g>
                    <g transform="translate(0.895438, 21.696025)">
                        <path d="M8.89566396,13.5523826 L1.59945799,13.5523826 L1.59945799,0.832023487 C1.59945799,0.528014905 1.45545393,0.432012195 1.1674458,0.48001355 L0.431425023,0.57601626 C0.143416893,0.57601626 0.0474141825,0.752021229 0.0794150858,1.08803071 L0.0794150858,13.7123871 C0.0794150858,14.6564137 0.447425474,15.0724255 1.32745032,15.0884259 L8.78366079,15.0884259 C9.23167344,15.0884259 9.40767841,14.9444219 9.51968157,14.5284101 L9.59968383,14.1764002 C9.67968609,13.744388 9.51968157,13.6003839 8.89566396,13.5523826 Z" id="Path"></path>
                        <path d="M23.5520777,14.6244128 L17.6799119,0.912025745 C17.5762716,0.60709008 17.2899587,0.402003083 16.9678918,0.402003083 C16.6458249,0.402003083 16.359512,0.60709008 16.2558717,0.912025745 L10.383706,14.6244128 C10.2557023,14.9444219 10.2717028,15.0244241 10.4957091,15.0724255 L11.2957317,15.0724255 C11.4148356,15.1114402 11.5450121,15.096808 11.6524826,15.0323257 C11.7599531,14.9678434 11.8341234,14.8598675 11.8557475,14.736416 L13.4557927,11.1843157 L20.5119919,11.1843157 L22.112037,14.736416 C22.1336612,14.8598675 22.2078315,14.9678434 22.315302,15.0323257 C22.4227725,15.096808 22.552949,15.1114402 22.6720528,15.0724255 L23.4720754,15.0724255 C23.6640808,15.0244241 23.7120822,14.9444219 23.5520777,14.6244128 Z M13.9518067,10.1122855 L16.9118902,2.67207543 L19.8559734,10.1122855 L13.9518067,10.1122855 Z" id="Shape"></path>
                        <path d="M32.9763437,7.47221093 C34.2746077,6.80339647 35.0488991,5.42478014 34.9443993,3.96811201 C35.0239665,3.09787135 34.7441865,2.23294603 34.1700234,1.57416948 C33.5958604,0.915392921 32.7772652,0.520077182 31.9043135,0.48001355 L26.4001581,0.48001355 C25.6481369,0.48001355 25.3761292,0.896025294 25.3761292,1.72804878 L25.3761292,13.9043925 C25.3761292,14.7044151 25.6481369,15.0244241 26.4001581,15.0884259 L31.8083107,15.0884259 C33.8813966,14.9937957 35.5077952,13.2754702 35.4884146,11.2003162 C35.5842787,9.53421943 34.5565254,8.00895498 32.9763437,7.47221093 Z M26.9121725,1.87205285 L31.6003049,1.87205285 C32.8163392,1.87205285 33.55236,3.23209124 33.55236,4.16011743 C33.55236,5.7601626 32.5283311,6.84819332 30.4802733,6.84819332 L26.9121725,6.84819332 L26.9121725,1.87205285 Z M31.712308,13.5523826 L26.9121725,13.5523826 L26.9121725,8.00022584 L29.9362579,8.00022584 C32.7523374,8.00022584 34.1283762,8.92825203 34.1283762,10.8483062 C34.1960253,11.5395236 33.9688292,12.2271928 33.5027071,12.7420598 C33.0365849,13.2569267 32.374826,13.5511752 31.6803071,13.5523826 L31.712308,13.5523826 Z" id="Shape"></path>
                        <path d="M38.6725045,4.48012647 C38.6725045,2.8800813 39.8885388,1.8880533 41.8725949,1.8880533 C42.7866082,1.89506263 43.6937902,2.04625965 44.5606707,2.33606594 C45.0406843,2.51207091 45.2326897,2.46406956 45.3606933,2.19206188 L45.5046974,1.76004968 C45.6487014,1.34403794 45.5046974,1.15203252 44.9766825,0.9600271 C43.9981798,0.599367251 42.9634492,0.415174357 41.9205962,0.416008901 C38.8805104,0.416008901 37.1204607,2.01605691 37.1204607,4.67213189 C37.1204607,8.99225384 45.2486902,8.35223577 45.2486902,11.3283198 C45.2486902,12.928365 43.9846545,13.8083898 42.0485998,13.8083898 C40.7592092,13.8277164 39.4795299,13.5826714 38.2884937,13.0883695 C37.7604788,12.896364 37.520472,12.928365 37.3764679,13.248374 L37.2164634,13.6963866 C37.0884598,14.0163957 37.2164634,14.2084011 37.5524729,14.3524051 C38.9116455,14.9434817 40.3746164,15.2589178 41.8565944,15.2804313 C45.0566847,15.2804313 46.7527563,13.8083898 46.7527563,11.1203139 C46.7687331,6.91219512 38.6725045,7.40820912 38.6725045,4.48012647 Z" id="Path"></path>
                    </g>
                </g>
                <g id="Group">
                    <path d="M19.200542,21.3126016 L8.00022584,37.6490628 C7.81776327,37.9166089 7.45419017,37.9878977 7.1842028,37.8090673 C7.05109207,37.7212174 6.9590567,37.583377 6.92893802,37.4267599 C6.89881934,37.2701427 6.9331653,37.1079982 7.02419828,36.9770438 L18.2245145,20.6405827 C18.4100874,20.3710601 18.7790151,20.3030055 19.0485377,20.4885784 C19.3180603,20.6741513 19.3861149,21.0430791 19.200542,21.3126016 L19.200542,21.3126016 Z" id="Path"></path>
                    <path d="M17.7285005,18.4005194 L6.78419151,34.4009711 C6.59861859,34.6704937 6.22969081,34.7385483 5.96016825,34.5529754 C5.69064568,34.3674025 5.62259104,33.9984747 5.80816396,33.7289521 L16.7524729,17.7285005 C16.9380458,17.4589779 17.3069736,17.3909233 17.5764962,17.5764962 C17.8460187,17.7620691 17.9140734,18.1309969 17.7285005,18.4005194 L17.7285005,18.4005194 Z" id="Path"></path>
                    <path d="M14.4004065,0.928026197 L1.71204833,19.4725497 L13.6163844,19.4725497 L12.8163618,20.6565831 L0.368010388,20.6565831 L0.256007227,20.6565831 C-0.0115388625,20.4741205 -0.0828277059,20.1105474 0.09600271,19.8405601 L13.392378,0.256007227 C13.5748406,-0.0115388625 13.9384137,-0.0828277059 14.2084011,0.09600271 C14.4891456,0.274183566 14.5746818,0.644840768 14.4004065,0.928026197 Z" id="Path"></path>
                    <path d="M15.5844399,4.48012647 L7.2162037,16.720472 L15.5044377,16.720472 L14.6884146,17.9045054 L4.97614047,17.9045054 L5.77616305,16.720472 L14.6084124,3.82410795 C14.8037927,3.59600771 15.1390175,3.5503503 15.3882838,3.71788993 C15.6375501,3.88542957 15.7218671,4.21307406 15.5844399,4.48012647 L15.5844399,4.48012647 Z" id="Path"></path>
                </g>
            </g>
        </g>
    </g>
</svg>