<?xml version="1.0" encoding="UTF-8"?>
<svg viewBox="0 0 28 55" version="1.1" xmlns="http://www.w3.org/2000/svg" xmlns:xlink="http://www.w3.org/1999/xlink">
    <!-- Generator: Sketch 62 (91390) - https://sketch.com -->
    <title>logo-invert</title>
    <desc>Created with Sketch.</desc>
    <g id="Delivery" stroke="none" stroke-width="1" fill="none" fill-rule="evenodd">
        <g id="Careers" transform="translate(-69.000000, -38.000000)" fill="#F5F5F5" fill-rule="nonzero">
            <g id="logo-invert" transform="translate(69.000000, 38.461884)">
                <g id="Group">
                    <path d="M27.25,30.2475 L11.3541667,53.4327083 C11.0952102,53.812418 10.579216,53.9135933 10.1960417,53.6597917 C10.0071268,53.5351125 9.87650739,53.3394851 9.83376203,53.1172092 C9.79101668,52.8949334 9.83976152,52.6648129 9.96895833,52.4789583 L25.8647917,29.29375 C26.1281625,28.9112353 26.6517561,28.81465 27.0342708,29.0780208 C27.4167856,29.3413916 27.5133708,29.8649853 27.25,30.2475 L27.25,30.2475 Z" id="Path"></path>
                    <path d="M25.1608333,26.1145833 L9.62833333,48.8229167 C9.36496254,49.2054314 8.84136889,49.3020166 8.45885417,49.0386458 C8.07633945,48.775275 7.97975421,48.2516814 8.243125,47.8691667 L23.775625,25.1608333 C24.0389958,24.7783186 24.5625894,24.6817334 24.9451042,24.9451042 C25.3276189,25.208475 25.4242041,25.7320686 25.1608333,26.1145833 L25.1608333,26.1145833 Z" id="Path"></path>
                    <path d="M20.4375,1.31708333 L2.42979167,27.6360417 L19.3247917,27.6360417 L18.189375,29.3164583 L0.522291667,29.3164583 L0.363333333,29.3164583 C-0.0163763088,29.0575018 -0.117551629,28.5415077 0.13625,28.1583333 L19.006875,0.363333333 C19.2658315,-0.0163763088 19.7818256,-0.117551629 20.165,0.13625 C20.5634412,0.389129753 20.6848369,0.91517786 20.4375,1.31708333 Z" id="Path"></path>
                    <path d="M22.1179167,6.35833333 L10.2414583,23.7302083 L22.004375,23.7302083 L20.84625,25.410625 L7.06229167,25.410625 L8.19770833,23.7302083 L20.7327083,5.42729167 C21.0099982,5.1035648 21.4857595,5.03876639 21.8395259,5.27654379 C22.1932923,5.51432119 22.3129575,5.97932434 22.1179167,6.35833333 L22.1179167,6.35833333 Z" id="Path"></path>
                </g>
            </g>
        </g>
    </g>
</svg>